<svg width="52" height="68" viewBox="0 0 52 68" fill="none" xmlns="http://www.w3.org/2000/svg">
<path d="M52 53.5801V68H2.41411V53.5801H19.7474V17.483C19.0232 18.4255 17.8644 19.4151 16.2711 20.4047C14.6778 21.3943 12.9396 22.3368 11.1049 23.185C9.22191 24.0804 7.29062 24.7873 5.31105 25.3056C3.33148 25.8711 1.54503 26.1538 0 26.1538V11.2626C1.44847 11.2626 3.23491 10.7914 5.35933 9.89605C7.48375 9.00069 9.55989 7.86972 11.5877 6.64449C13.6156 5.37214 15.402 4.14691 16.8988 2.92169C18.3955 1.69646 19.3612 0.706861 19.7474 0H36.5014V53.6272H52V53.5801Z" fill="#AEAEAE"/>
</svg>
