<svg xmlns="http://www.w3.org/2000/svg" xmlns:xlink="http://www.w3.org/1999/xlink" version="1.1" id="Layer_1" x="0px" y="0px" width="40" height="40" viewBox="0 0 40 40" style="enable-background:new 0 0 40 40;" xml:space="preserve">
<style type="text/css">
	.st0{fill:#FFFFFF;}
</style>
<path class="st0" d="M20,0.5C9.2,0.5,0.5,9.2,0.5,20c0,10.8,8.7,19.5,19.5,19.5S39.5,30.8,39.5,20C39.5,9.2,30.8,0.5,20,0.5z   M29.6,16.9c0,0.2,0,0.4,0,0.6c0,6.2-4.7,13.3-13.3,13.3c-2.6,0-5.1-0.8-7.1-2.1c0.4,0,0.7,0.1,1.1,0.1c2.2,0,4.2-0.7,5.8-2  c-2,0-3.8-1.4-4.4-3.2c0.3,0.1,0.6,0.1,0.9,0.1c0.4,0,0.8-0.1,1.2-0.2c-2.1-0.4-3.7-2.3-3.7-4.6c0,0,0,0,0-0.1  c0.6,0.4,1.3,0.6,2.1,0.6c-1.2-0.8-2.1-2.3-2.1-3.9c0-0.9,0.2-1.7,0.6-2.3c2.3,2.8,5.7,4.7,9.6,4.9c-0.1-0.3-0.1-0.7-0.1-1.1  c0-2.6,2.1-4.7,4.7-4.7c1.3,0,2.6,0.6,3.4,1.5c1.1-0.2,2.1-0.6,3-1.1c-0.3,1.1-1.1,2-2,2.6c0.9-0.1,1.8-0.4,2.7-0.7  C31.3,15.4,30.5,16.3,29.6,16.9z"/>
</svg>