<svg xmlns="http://www.w3.org/2000/svg" xmlns:xlink="http://www.w3.org/1999/xlink" version="1.1" id="Layer_1" x="0px" y="0px" width="40" height="40" viewBox="0 0 40 40" style="enable-background:new 0 0 40 40;" xml:space="preserve">
<style type="text/css">
	.st0{fill:#FFFFFF;}
</style>
<g>
	<g>
		<polygon class="st0" points="10.7,21.4 12.3,21.4 12.3,29.8 13.8,29.8 13.8,21.4 15.3,21.4 15.3,20.1 10.7,20.1   "/>
		<path class="st0" d="M23.1,22.5c-0.5,0-0.9,0.3-1.4,0.8v-3.2h-1.3v9.7h1.3v-0.7c0.4,0.5,0.9,0.8,1.4,0.8c0.5,0,0.9-0.3,1.1-0.8    c0.1-0.3,0.1-0.8,0.1-1.5v-2.9c0-0.7,0-1.2-0.1-1.5C24,22.7,23.6,22.5,23.1,22.5z M23,27.7c0,0.7-0.2,1-0.6,1    c-0.2,0-0.4-0.1-0.7-0.3V24c0.2-0.2,0.4-0.3,0.7-0.3c0.4,0,0.6,0.3,0.6,1V27.7z"/>
		<path class="st0" d="M18,28.1c-0.3,0.4-0.6,0.6-0.8,0.6c-0.2,0-0.3-0.1-0.3-0.3c0,0,0-0.2,0-0.5v-5.3h-1.3v5.7    c0,0.5,0,0.9,0.1,1.1c0.1,0.4,0.4,0.5,0.8,0.5c0.5,0,1-0.3,1.5-0.9v0.8h1.3v-7.3H18V28.1z"/>
		<path class="st0" d="M19.1,15.8c0.4,0,0.6-0.3,0.6-1v-3.1c0-0.7-0.2-1-0.6-1c-0.4,0-0.6,0.3-0.6,1v3.1    C18.5,15.5,18.7,15.8,19.1,15.8z"/>
		<path class="st0" d="M20,0.5C9.2,0.5,0.5,9.2,0.5,20S9.2,39.5,20,39.5S39.5,30.8,39.5,20S30.8,0.5,20,0.5z M22.2,9.6h1.3V15    c0,0.3,0,0.5,0,0.5c0,0.2,0.1,0.3,0.3,0.3c0.3,0,0.5-0.2,0.8-0.6V9.6H26V17h-1.3v-0.8c-0.5,0.6-1,0.9-1.5,0.9    c-0.4,0-0.7-0.2-0.9-0.5c-0.1-0.2-0.1-0.6-0.1-1.1V9.6L22.2,9.6z M17.2,12c0-0.8,0.1-1.4,0.4-1.7c0.4-0.5,0.9-0.8,1.5-0.8    c0.7,0,1.2,0.3,1.6,0.8c0.3,0.4,0.4,0.9,0.4,1.7v2.6c0,0.8-0.1,1.4-0.4,1.7c-0.4,0.5-0.9,0.8-1.6,0.8c-0.7,0-1.2-0.3-1.5-0.8    c-0.3-0.4-0.4-0.9-0.4-1.7V12z M13.6,7.1l1,3.9l1-3.9h1.5L15.4,13v4h-1.5v-4c-0.1-0.7-0.4-1.7-0.9-3.1C12.7,8.9,12.4,8,12,7.1    C12,7.1,13.6,7.1,13.6,7.1z M30.5,30.4c-0.3,1.2-1.2,2-2.4,2.1c-2.7,0.3-5.4,0.3-8.1,0.3c-2.7,0-5.4,0-8.1-0.3    c-1.1-0.1-2.1-1-2.4-2.1c-0.4-1.6-0.4-3.4-0.4-5.1c0-1.7,0-3.5,0.4-5.1c0.3-1.2,1.2-2,2.4-2.1c2.7-0.3,5.4-0.3,8.1-0.3    c2.7,0,5.4,0,8.1,0.3c1.1,0.1,2.1,1,2.4,2.1c0.4,1.6,0.4,3.4,0.4,5.1C30.9,27,30.9,28.8,30.5,30.4z"/>
		<path class="st0" d="M27.3,22.5c-0.7,0-1.2,0.2-1.6,0.7c-0.3,0.4-0.4,0.9-0.4,1.7v2.5c0,0.8,0.1,1.3,0.4,1.7    c0.4,0.5,0.9,0.7,1.6,0.7c0.7,0,1.2-0.3,1.6-0.8c0.2-0.2,0.3-0.5,0.3-0.8c0-0.1,0-0.4,0-0.8v-0.2h-1.3c0,0.5,0,0.8,0,0.9    c-0.1,0.4-0.3,0.5-0.6,0.5c-0.5,0-0.7-0.3-0.7-1v-1.3h2.6v-1.5c0-0.8-0.1-1.3-0.4-1.7C28.5,22.7,28,22.5,27.3,22.5z M27.9,25.3    h-1.3v-0.7c0-0.7,0.2-1,0.7-1c0.4,0,0.7,0.3,0.7,1V25.3z"/>
	</g>
</g>
</svg>