<svg xmlns="http://www.w3.org/2000/svg" xmlns:xlink="http://www.w3.org/1999/xlink" version="1.1" id="Layer_1" x="0px" y="0px" width="40" height="40" viewBox="0 0 40 40" style="enable-background:new 0 0 40 40;" xml:space="preserve">
<style type="text/css">
	.st0{fill:#FFFFFF;}
</style>
<path class="st0" d="M20,0.5C9.2,0.5,0.5,9.2,0.5,20c0,10.8,8.7,19.5,19.5,19.5c10.8,0,19.5-8.7,19.5-19.5C39.5,9.2,30.8,0.5,20,0.5  z M25.4,12.4h-2.8c-0.5,0-1.1,0.2-1.1,1.2v2.6h3.9l-0.5,4.5h-3.5v12.7h-5.3V20.8h-2.5v-4.5h2.5v-2.9c0-2.1,1-5.3,5.3-5.3l3.9,0V12.4  z"/>
</svg>