<svg width="56" height="68" viewBox="0 0 56 68" fill="none" xmlns="http://www.w3.org/2000/svg">
<path d="M0 58.5997L10.4915 44.3824C14.9424 48.1706 21.3009 50.1816 26.9327 50.1816C33.4274 50.1816 36.0616 47.4691 36.0616 44.663C36.0616 41.6699 33.5182 39.1444 27.5231 39.1444C22.5726 39.1444 18.7575 40.5475 15.4874 43.7276L1.99838 40.5475V0H51.5491V17.6314H21.6188V27.0316C24.7072 23.945 29.7032 21.934 35.1079 21.934C46.1898 21.934 56 30.4457 56 43.7744C56 58.5062 45.3268 68 27.1144 68C15.5328 68 6.31306 64.4924 0 58.5997Z" fill="#AEAEAE"/>
</svg>
