<svg xmlns="http://www.w3.org/2000/svg" xmlns:xlink="http://www.w3.org/1999/xlink" version="1.1" id="Layer_1" x="0px" y="0px" width="40" height="40" viewBox="0 0 40 40" style="enable-background:new 0 0 40 40;" xml:space="preserve">
<style type="text/css">
	.st0{fill:#FFFFFF;}
</style>
<path class="st0" d="M20,0.5C9.2,0.5,0.5,9.2,0.5,20S9.2,39.5,20,39.5c10.8,0,19.5-8.7,19.5-19.5S30.8,0.5,20,0.5z M23.5,9.8  c1-0.3,2.1-0.6,3.1-0.9c0.1,0,0.3-0.1,0.4-0.1c0.3-0.1,0.5,0.1,0.5,0.3c0,0.2,0,0.4,0,0.6c0,1,0,2,0,3.1c0,0,0,0,0,0  c0,1.1,0,2.1,0,3.2c0,0.5-0.1,0.7-0.7,0.7c-1.2,0-2.4,0-3.5,0c-0.4,0-0.5-0.2-0.5-0.5c0-1.8,0-3.7,0-5.5C22.9,10.2,23.1,10,23.5,9.8  z M12.3,13.1c0.1-0.1,0.3-0.3,0.5-0.3c1.2-0.3,2.4-0.6,3.6-1c0.3-0.1,0.5,0,0.5,0.4c0,0.5,0,1,0,1.5c0,0.3-0.2,0.4-0.5,0.4  c-0.6,0-1.2,0-1.8,0c-0.6,0-1.2,0-1.8,0c-0.2,0-0.4-0.1-0.5-0.3C12.2,13.6,12.2,13.3,12.3,13.1z M17,24.8c0,1.5,0,3,0,4.5  c0,0.5-0.2,0.7-0.6,0.8c-1.2,0.3-2.4,0.7-3.6,1c-0.3,0.1-0.5-0.1-0.5-0.4c0-0.2,0-0.4,0-0.6c0-1,0-2,0-3c0,0,0,0,0,0  c0-1.1,0-2.2,0-3.2c0-0.5,0.2-0.7,0.6-0.7c1.2,0,2.3,0,3.5,0c0.4,0,0.6,0.2,0.6,0.6C17,24.2,17,24.5,17,24.8z M27.5,26.9  c-0.1,0.1-0.3,0.3-0.4,0.3c-1.2,0.3-2.3,0.6-3.5,0.9c-0.3,0.1-0.5,0-0.5-0.4c0-0.5,0-0.9,0-1.4c0-0.3,0.2-0.5,0.5-0.5  c0.6,0,1.2,0,1.8,0c0.6,0,1.1,0,1.7,0c0.3,0,0.4,0.1,0.5,0.3C27.7,26.5,27.7,26.7,27.5,26.9z M33,22.3c-0.5,0.1-0.9,0.3-1.4,0.4  c-2.6,0.8-5.2,1.5-7.8,2.3c-0.6,0.2-0.9,0-0.9-0.6c0-0.7,0-1.4,0-2.1c0-0.4,0-0.4-0.4-0.4c-3.3,0-6.6,0-9.9,0c-0.4,0-0.5,0-0.5-0.5  c0-0.8,0-1.6,0-2.4c0-0.5-0.3-0.8-0.8-0.8c-1.4,0-2.7,0-4.1-0.1c-0.1,0-0.3-0.1-0.4-0.1c0-0.1,0-0.2,0-0.3c0.1,0,0.2-0.1,0.4-0.1  c3.1-0.9,6.2-1.8,9.3-2.7c0.4-0.1,0.5,0,0.5,0.3c0,0.8,0,1.6,0,2.4c0,0.5,0.2,0.6,0.6,0.6c3.1,0,6.2,0,9.4,0c0.5,0,0.7,0.2,0.7,0.7  c0,0.7,0,1.4,0,2.1c0,0.5,0.2,0.8,0.8,0.8c1.4,0,2.9,0,4.3,0c0.1,0,0.1,0,0.2,0c0.2,0,0.3,0.1,0.3,0.3C33.2,22.1,33.1,22.2,33,22.3z  "/>
</svg>