<svg width="176" height="45" viewBox="0 0 176 45" fill="none" xmlns="http://www.w3.org/2000/svg">
<path d="M41.0246 10.2782V33.904C41.0246 35.1761 39.9426 36.2665 38.6803 36.2665H36.877C36.2459 36.2665 35.6147 36.8118 35.6147 37.5387V43.2634C35.6147 43.2634 35.5246 47.1707 31.7377 43.2634C29.1229 40.5374 26.6885 36.2665 14.1557 36.2665H2.34426C1.08197 36.2665 0 35.1761 0 33.904V10.2782C0 9.00606 1.08197 7.91564 2.34426 7.91564H4.14754C4.77869 7.91564 5.40983 7.37043 5.40983 6.64348V1.73659C5.40983 1.73659 5.5 -2.17074 9.28688 1.73659C11.9918 4.46264 14.3361 7.91564 26.8688 7.91564H38.6803C39.9426 7.82477 41.0246 8.91519 41.0246 10.2782ZM33.3606 16.0029C33.3606 15.276 32.7295 14.7308 32.0984 14.7308H8.83606C8.11475 14.7308 7.57377 15.3668 7.57377 16.0029C7.57377 16.7299 8.20492 17.2751 8.83606 17.2751H32.0984C32.8197 17.2751 33.3606 16.7299 33.3606 16.0029ZM33.3606 22.4546C33.3606 21.7276 32.7295 21.1824 32.0984 21.1824H8.83606C8.11475 21.1824 7.57377 21.8185 7.57377 22.4546C7.57377 23.1815 8.20492 23.7267 8.83606 23.7267H32.0984C32.8197 23.7267 33.3606 23.1815 33.3606 22.4546ZM33.3606 28.9062C33.3606 28.1793 32.7295 27.6341 32.0984 27.6341H8.83606C8.11475 27.6341 7.57377 28.2701 7.57377 28.9062C7.57377 29.6332 8.20492 30.1784 8.83606 30.1784H32.0984C32.8197 30.1784 33.3606 29.6332 33.3606 28.9062Z" fill="white"/>
<path d="M51.213 15.6395L49.5901 20.6372H48.1475L53.1966 6.00744C53.2868 5.73484 53.4671 5.5531 53.7376 5.5531H55.3606C55.6311 5.5531 55.8114 5.73484 55.9016 6.00744L60.8606 20.6372H59.4179L57.795 15.6395H51.213ZM55.1802 7.91568C55.0901 7.46133 54.9098 7.09786 54.8196 6.64352H54.1884L53.7376 7.91568L51.5737 14.3673H57.254L55.1802 7.91568Z" fill="white"/>
<path d="M63.9257 18.002C63.9257 19.0016 64.4667 19.5468 65.4585 19.5468H66.5405L66.7208 20.6372C66.3601 20.7281 65.4585 20.8189 65.0077 20.8189C63.565 20.8189 62.5732 19.9103 62.5732 18.2746V5.37134H63.9257V18.002Z" fill="white"/>
<path d="M69.6972 18.002C69.6972 19.0016 70.2382 19.5468 71.23 19.5468H72.3119L72.4923 20.6372C72.1316 20.7281 71.23 20.8189 70.7792 20.8189C69.3365 20.8189 68.3447 19.9103 68.3447 18.2746V5.37134H69.6972V18.002Z" fill="white"/>
<path d="M80.426 8.27915V20.6372H77.0899V8.27915H72.6719V5.5531H84.9342V8.27915H80.426Z" fill="white"/>
<path d="M89.4428 9.09694C89.4428 9.91475 89.3527 10.7326 89.2625 11.3686C90.7051 10.1874 92.2379 9.55128 93.6805 9.55128C95.574 9.55128 96.656 10.6417 96.656 12.5499V20.6372H93.5002V13.5495C93.5002 12.5499 93.2297 12.2773 92.4183 12.2773C91.5166 12.2773 90.7051 12.5499 89.4428 13.2769V20.6372H86.2871V5.37134H89.533V9.09694H89.4428Z" fill="white"/>
<path d="M101.164 5.09875C101.795 5.09875 102.065 5.46223 102.065 6.00744V7.18873C102.065 7.8248 101.795 8.09741 101.164 8.09741H99.721C99.0898 8.09741 98.8193 7.8248 98.8193 7.18873V6.00744C98.8193 5.37136 99.0898 5.09875 99.721 5.09875H101.164ZM98.8193 20.6372V9.91477H101.975V20.6372H98.8193Z" fill="white"/>
<path d="M107.114 11.4595C108.647 10.1873 110.18 9.55127 111.713 9.55127C113.606 9.55127 114.688 10.6417 114.688 12.5499V20.6372H111.532V13.5495C111.532 12.5499 111.262 12.2773 110.45 12.2773C109.549 12.2773 108.737 12.6408 107.475 13.2769V20.6372H104.319V9.91474H106.934L107.114 11.4595Z" fill="white"/>
<path d="M126.32 11.4595C126.5 11.9138 126.59 12.3682 126.59 13.0043C126.59 15.4577 125.328 16.4573 121.541 16.4573C120.91 16.4573 120.279 16.4573 119.648 16.3664C119.377 16.8207 119.467 17.5477 120.279 17.6385L124.156 18.0929C126.41 18.3655 127.312 19.365 127.312 21.2733C127.312 24.0902 125.779 24.7263 121.721 24.7263C117.303 24.7263 116.041 23.9085 116.041 21.5459C116.041 20.4555 116.492 19.8194 117.754 19.1833C116.762 18.2746 117.123 16.4573 118.115 15.912C116.943 15.3668 116.492 14.4582 116.492 13.0043C116.492 10.46 117.754 9.55127 121.541 9.55127C122.713 9.55127 123.615 9.64214 124.336 9.82387H127.762L127.582 11.1869L126.32 11.4595ZM119.738 19.9103C119.287 20.2737 119.107 20.5463 119.107 21.1824C119.107 22.2728 119.557 22.4546 121.631 22.4546C123.705 22.4546 124.246 22.2728 124.246 21.2733C124.246 20.4555 123.885 20.4555 122.443 20.2737L119.738 19.9103ZM123.525 13.0043C123.525 11.9138 123.074 11.6412 121.451 11.6412C119.828 11.6412 119.377 11.9138 119.377 13.0043C119.377 14.0947 119.918 14.3673 121.451 14.3673C123.074 14.4582 123.525 14.0947 123.525 13.0043Z" fill="white"/>
<path d="M131.098 16.0029C129.115 15.3668 128.483 14.4581 128.483 12.7316C128.483 10.4599 129.746 9.64209 132.992 9.64209C134.524 9.64209 136.598 9.82383 137.951 10.0964L137.77 12.1864C136.418 12.1864 134.975 12.1864 133.623 12.1864C131.91 12.1864 131.549 12.1864 131.549 12.9133C131.549 13.5494 131.91 13.5494 132.901 13.9129L135.606 14.6398C137.41 15.1851 138.221 15.912 138.221 17.8202C138.221 20.4554 136.778 21.0915 133.352 21.0915C132.541 21.0915 130.647 21.0915 128.574 20.728L128.754 18.6381C129.565 18.6381 131.008 18.6381 132.451 18.6381C134.615 18.6381 135.156 18.5472 135.156 17.8202C135.156 17.1842 134.705 17.1842 133.623 16.8207L131.098 16.0029Z" fill="white"/>
<path d="M145.615 6.82526V20.6372H144.172V6.82526H139.213V5.5531H150.574V6.82526H145.615Z" fill="white"/>
<path d="M150.123 10.2782C151.565 10.0965 153.369 9.82385 155.172 9.82385C157.336 9.82385 158.508 10.6417 158.508 13.0951V20.6372H157.426L157.246 18.7289C156.344 19.6376 154.631 20.728 152.647 20.728C150.844 20.728 149.672 19.7285 149.672 17.8203V16.5481C149.672 14.9125 150.664 14.0038 152.377 14.0038H157.065V12.9134C157.065 11.6412 156.524 10.9143 154.811 10.9143C153.549 10.9143 151.746 11.0051 150.123 11.1869V10.2782ZM151.114 17.8203C151.114 19.0016 151.746 19.6376 153.008 19.6376C154.27 19.6376 155.983 19.0016 157.246 17.8203V15.276H152.737C151.655 15.276 151.114 15.912 151.114 16.9116V17.8203Z" fill="white"/>
<path d="M163.106 18.002C163.106 19.0016 163.647 19.5468 164.639 19.5468H165.721L165.901 20.6372C165.541 20.7281 164.639 20.8189 164.188 20.8189C162.746 20.8189 161.754 19.9103 161.754 18.2746V5.37134H163.106V18.002Z" fill="white"/>
<path d="M168.787 15.1851C168.877 15.8212 168.877 16.3664 168.877 17.0025V20.7281H167.524V5.37134H168.877V12.3682C168.877 13.0043 168.877 13.6404 168.787 14.1856H170.319L173.926 10.1874H175.549L172.033 14.0947C171.852 14.2764 171.582 14.6399 171.401 14.7308C171.582 14.8216 171.852 15.1851 172.033 15.4577L176 20.6372H174.377L170.319 15.1851H168.787Z" fill="white"/>
<path d="M51.6642 29.8149C52.4757 29.8149 53.1068 30.0875 53.4675 30.5418C53.8282 30.9962 54.0085 31.814 54.0085 33.0862C54.0085 34.2674 53.8282 35.0853 53.3773 35.6305C52.9265 36.0848 52.115 36.3574 51.0331 36.3574C50.6724 36.3574 50.0413 36.3574 49.2298 36.2665L48.8691 36.0848V27.3615H50.1314V30.1784C50.7626 29.9058 51.2134 29.8149 51.6642 29.8149ZM51.1232 35.0853C51.7544 35.0853 52.2052 34.9035 52.3855 34.6309C52.5659 34.3583 52.7462 33.8131 52.7462 33.0862C52.7462 32.3592 52.656 31.814 52.4757 31.5414C52.2954 31.2688 52.0249 31.0871 51.5741 31.0871C51.2134 31.0871 50.7626 31.0871 50.4019 31.2688H50.2216V34.9944C50.5823 34.9944 50.9429 35.0853 51.1232 35.0853Z" fill="white"/>
<path d="M54.7295 29.9058H56.082L57.3442 34.9035H57.7049L58.9672 29.9058H60.2295L57.8852 38.72H56.6229L57.3442 36.0848H56.2623L54.7295 29.9058Z" fill="white"/>
<path d="M63.4756 36.0848L65.5494 27.634H68.2543L70.328 36.0848H68.9756L68.5248 34.2674H65.369L64.9182 36.0848H63.4756ZM66.5412 28.8153L65.4592 33.0861H68.1641L67.1723 28.8153H66.5412Z" fill="white"/>
<path d="M76.1885 36.0849H71.5V27.725H72.8525V34.9036H76.1885V36.0849Z" fill="white"/>
<path d="M79.7049 28.7245C78.6229 28.7245 78.1721 29.088 78.1721 29.8149C78.1721 30.1784 78.2623 30.451 78.5328 30.6327C78.8033 30.8145 79.3442 30.9962 80.1557 31.2688C80.9672 31.5414 81.5983 31.814 81.959 32.0866C82.3197 32.4501 82.5 32.9044 82.5 33.6314C82.5 34.5401 82.2295 35.1761 81.7787 35.6305C81.2377 36.0848 80.6065 36.2666 79.7049 36.2666C79.0738 36.2666 78.2623 36.1757 77.3606 35.994L76.9098 35.9031L77 34.8127C78.0819 34.9035 78.8934 34.9944 79.5246 34.9944C80.5164 34.9944 81.0574 34.5401 81.0574 33.6314C81.0574 33.2679 80.9672 32.9953 80.6967 32.9044C80.4262 32.8136 79.9754 32.541 79.1639 32.3592C78.3524 32.1775 77.8115 31.9049 77.3606 31.5414C77 31.1779 76.7295 30.6327 76.7295 29.9058C76.7295 29.1788 77 28.5428 77.4508 28.1793C77.9918 27.8158 78.6229 27.5432 79.5246 27.5432C80.1557 27.5432 80.877 27.6341 81.7787 27.7249L82.2295 27.8158L82.1393 28.9062C80.9672 28.8154 80.1557 28.7245 79.7049 28.7245Z" fill="white"/>
<path d="M89.5329 35.1757C88.9919 35.8118 88.1804 36.1753 86.9181 36.1753C85.6558 36.1753 84.7542 35.8118 84.3033 35.0848C83.7624 34.4488 83.582 33.2675 83.582 31.8136C83.582 30.3597 83.8525 29.2693 84.3033 28.5423C84.8443 27.8154 85.6558 27.4519 86.9181 27.4519C88.1804 27.4519 89.082 27.8154 89.5329 28.5423C90.0738 29.2693 90.2542 30.3597 90.2542 31.8136C90.2542 33.2675 90.0738 34.5396 89.5329 35.1757ZM85.2951 34.267C85.5656 34.7214 86.1066 34.994 86.9181 34.994C87.7296 34.994 88.1804 34.7214 88.541 34.267C88.8115 33.8127 88.9919 32.9949 88.9919 31.9045C88.9919 30.814 88.9017 29.9962 88.541 29.451C88.1804 28.9058 87.7296 28.7241 87.0083 28.7241C86.287 28.7241 85.746 28.9967 85.4755 29.451C85.205 29.9962 85.0247 30.7232 85.0247 31.9045C84.9345 32.9949 85.0247 33.8127 85.2951 34.267Z" fill="white"/>
</svg>
