<svg width="58" height="69" viewBox="0 0 58 69" fill="none" xmlns="http://www.w3.org/2000/svg">
<path d="M0 34.191C0 12.0919 13.7785 0 33.7259 0C41.0654 0 48.6751 2.17748 53.7633 5.74483L45.5682 21.2188C41.921 18.5317 38.4538 17.6514 33.7259 17.6514C27.3769 17.6514 19.6772 21.1261 19.6772 29.1411C19.6772 29.2338 19.6772 29.2338 19.6772 29.3264C22.9642 24.9715 28.7278 22.5623 34.6264 22.5623C46.1986 22.5623 57.3655 30.392 57.3655 44.4761C57.3655 58.8381 45.8834 68.2893 30.664 68.2893C9.54591 68.2893 0 53.5103 0 34.191ZM37.5983 45.31C37.5983 41.0477 32.5101 39.5652 28.6377 39.5652C25.3507 39.5652 22.1987 40.1675 19.5871 42.2523C19.9924 46.6999 22.649 50.6842 29.4032 50.6842C34.3112 50.6379 37.5983 48.0898 37.5983 45.31Z" fill="#AEAEAE"/>
</svg>
