<svg width="56" height="68" viewBox="0 0 56 68" fill="none" xmlns="http://www.w3.org/2000/svg">
<path d="M0 57.7193L9.59741 44.1193C14.6225 48.5451 22.1827 50.4353 27.1172 50.4353C33.5004 50.4353 36.5336 48.3607 36.5336 46.0095C36.5336 43.7505 35.1754 42.4597 26.574 42.4597C23.7672 42.4597 18.1536 42.5519 17.1576 42.6441V24.9871C18.4252 25.0793 24.2199 25.0793 26.574 25.0793C32.7761 25.0793 35.4923 23.8807 35.4923 21.8061C35.4923 18.7634 31.5085 17.5647 25.8949 17.5647C20.3719 17.5647 14.5772 19.5471 10.0954 23.2814L0.905416 10.8339C6.60954 4.42576 15.4374 0 28.0226 0C45.8593 0 54.9588 7.37627 54.9588 18.2563C54.9588 25.2637 48.9378 31.4875 40.6985 32.8705C47.8513 33.6542 56 39.1864 56 48.2685C56 60.0244 44.6823 68 27.8868 68C15.0752 67.9539 5.38723 63.6203 0 57.7193Z" fill="#AEAEAE"/>
</svg>
